<svg id="_x31_px" enable-background="new 0 0 24 24" height="512" viewBox="0 0 24 24" width="512" xmlns="http://www.w3.org/2000/svg"><path d="m4.37 5.81c-.204 0-.395-.125-.469-.327-.095-.259.037-.547.296-.642l5.76-2.12c.259-.096.546.037.642.296.095.259-.038.547-.296.642l-5.76 2.12c-.057.021-.115.031-.173.031z"/><path d="m13.87 9.31c-.204 0-.395-.125-.469-.327-.095-.259.038-.547.296-.642l5.76-2.12c.259-.096.547.037.642.296s-.038.547-.296.642l-5.76 2.12c-.057.021-.115.031-.173.031z"/><path d="m10.13 9.31c-.058 0-.116-.01-.173-.031l-5.76-2.12c-.259-.095-.391-.383-.296-.642.096-.259.384-.391.642-.296l5.76 2.12c.259.095.392.383.296.642-.074.202-.266.327-.469.327z"/><path d="m19.63 5.81c-.058 0-.116-.01-.173-.031l-5.76-2.12c-.259-.095-.392-.383-.296-.642.095-.259.384-.391.642-.296l5.76 2.12c.259.095.392.383.296.642-.074.202-.266.327-.469.327z"/><path d="m13.87 21.31c-.204 0-.395-.125-.469-.327-.095-.259.038-.547.296-.642l5.76-2.12c.259-.095.547.037.642.296s-.038.547-.296.642l-5.76 2.12c-.057.021-.115.031-.173.031z"/><path d="m10.13 21.31c-.058 0-.116-.01-.173-.031l-5.76-2.12c-.259-.095-.392-.383-.296-.642s.384-.39.642-.296l5.76 2.12c.259.095.392.383.296.642-.074.202-.266.327-.469.327z"/><path d="m2.5 16.5c-.276 0-.5-.224-.5-.5v-8c0-.276.224-.5.5-.5s.5.224.5.5v8c0 .276-.224.5-.5.5z"/><path d="m21.5 16.5c-.276 0-.5-.224-.5-.5v-8c0-.276.224-.5.5-.5s.5.224.5.5v8c0 .276-.224.5-.5.5z"/><path d="m12 20c-.276 0-.5-.224-.5-.5v-8c0-.276.224-.5.5-.5s.5.224.5.5v8c0 .276-.224.5-.5.5z"/><path d="m12 5c-1.378 0-2.5-1.122-2.5-2.5s1.122-2.5 2.5-2.5 2.5 1.122 2.5 2.5-1.122 2.5-2.5 2.5zm0-4c-.827 0-1.5.673-1.5 1.5s.673 1.5 1.5 1.5 1.5-.673 1.5-1.5-.673-1.5-1.5-1.5z"/><path d="m12 12c-1.378 0-2.5-1.122-2.5-2.5s1.122-2.5 2.5-2.5 2.5 1.122 2.5 2.5-1.122 2.5-2.5 2.5zm0-4c-.827 0-1.5.673-1.5 1.5s.673 1.5 1.5 1.5 1.5-.673 1.5-1.5-.673-1.5-1.5-1.5z"/><path d="m12 24c-1.378 0-2.5-1.122-2.5-2.5s1.122-2.5 2.5-2.5 2.5 1.122 2.5 2.5-1.122 2.5-2.5 2.5zm0-4c-.827 0-1.5.673-1.5 1.5s.673 1.5 1.5 1.5 1.5-.673 1.5-1.5-.673-1.5-1.5-1.5z"/><path d="m2.5 20.5c-1.378 0-2.5-1.122-2.5-2.5s1.122-2.5 2.5-2.5 2.5 1.122 2.5 2.5-1.122 2.5-2.5 2.5zm0-4c-.827 0-1.5.673-1.5 1.5s.673 1.5 1.5 1.5 1.5-.673 1.5-1.5-.673-1.5-1.5-1.5z"/><path d="m21.5 20.5c-1.378 0-2.5-1.122-2.5-2.5s1.122-2.5 2.5-2.5 2.5 1.122 2.5 2.5-1.122 2.5-2.5 2.5zm0-4c-.827 0-1.5.673-1.5 1.5s.673 1.5 1.5 1.5 1.5-.673 1.5-1.5-.673-1.5-1.5-1.5z"/><path d="m21.5 8.5c-1.378 0-2.5-1.122-2.5-2.5s1.122-2.5 2.5-2.5 2.5 1.122 2.5 2.5-1.122 2.5-2.5 2.5zm0-4c-.827 0-1.5.673-1.5 1.5s.673 1.5 1.5 1.5 1.5-.673 1.5-1.5-.673-1.5-1.5-1.5z"/><path d="m2.5 8.5c-1.378 0-2.5-1.122-2.5-2.5s1.122-2.5 2.5-2.5 2.5 1.122 2.5 2.5-1.122 2.5-2.5 2.5zm0-4c-.827 0-1.5.673-1.5 1.5s.673 1.5 1.5 1.5 1.5-.673 1.5-1.5-.673-1.5-1.5-1.5z"/></svg>