<?xml version="1.0"?>
<svg xmlns="http://www.w3.org/2000/svg" xmlns:xlink="http://www.w3.org/1999/xlink" xmlns:svgjs="http://svgjs.com/svgjs" version="1.1" width="512" height="512" x="0" y="0" viewBox="0 0 512.002 512.002" style="enable-background:new 0 0 512 512" xml:space="preserve" class=""><g>
<g xmlns="http://www.w3.org/2000/svg">
	<g>
		<g>
			<circle cx="164.573" cy="82.286" r="18.286" fill="#238706" data-original="#000000" style="" class=""/>
			<path d="M164.573,164.571c45.445,0,82.286-36.841,82.286-82.286C246.858,36.841,210.018,0,164.573,0     c-45.445,0-82.286,36.841-82.286,82.286C82.337,127.71,119.148,164.521,164.573,164.571z M101.56,86.427l-0.009-0.027     c-1.094-2.166-1.282-4.679-0.522-6.984c0.76-2.305,2.405-4.213,4.572-5.304c7.829-3.491,16.347-5.164,24.914-4.891     c1.228-3.153,2.89-6.12,4.937-8.814c-3.613-3.541-7.888-6.337-12.581-8.229c-4.797-1.603-7.386-6.792-5.783-11.589     s6.792-7.386,11.589-5.783c7.979,3.053,15.166,7.866,21.029,14.08c3.09-1.342,6.352-2.247,9.691-2.688     c-0.037-5.057-1.075-10.057-3.054-14.711c-2.21-4.509-0.369-9.957,4.123-12.202s9.954-0.446,12.233,4.028     c3.503,7.825,5.179,16.345,4.901,24.914c3.146,1.224,6.106,2.879,8.795,4.919c3.59-3.506,6.395-7.735,8.229-12.407     c0.991-3.113,3.568-5.461,6.76-6.158c3.192-0.698,6.513,0.36,8.713,2.775c2.2,2.415,2.945,5.82,1.953,8.933     c-2.98,8.053-7.831,15.283-14.153,21.093c1.369,3.11,2.292,6.397,2.743,9.765c5.052-0.009,10.05-1.041,14.693-3.035     c4.514-2.272,10.016-0.455,12.288,4.059c2.272,4.514,0.455,10.016-4.059,12.288c-7.23,3.287-15.079,4.992-23.022,5.001     c-0.613,0-1.271-0.073-1.902-0.091c-1.221,3.149-2.88,6.11-4.928,8.795c3.613,3.541,7.888,6.337,12.581,8.229     c4.239,1.438,6.814,5.734,6.083,10.15c-0.73,4.416-4.551,7.654-9.027,7.651c-0.973,0.001-1.939-0.157-2.862-0.466     c-7.979-3.053-15.166-7.866-21.029-14.08c-3.09,1.342-6.352,2.247-9.691,2.688c0.029,5.069,1.064,10.081,3.045,14.747     c2.21,4.509,0.369,9.957-4.123,12.202s-9.954,0.446-12.233-4.028c-3.503-7.825-5.179-16.345-4.901-24.914     c-3.153-1.228-6.12-2.89-8.814-4.937c-3.541,3.613-6.337,7.888-8.229,12.581c-1.603,4.797-6.792,7.386-11.589,5.783     s-7.386-6.792-5.783-11.589c3.053-7.979,7.866-15.166,14.08-21.029c-1.342-3.093-2.247-6.358-2.688-9.701     c-5.052,0.011-10.05,1.044-14.693,3.035c-2.167,1.09-4.677,1.275-6.98,0.514C104.556,90.24,102.65,88.594,101.56,86.427z" fill="#238706" data-original="#000000" style="" class=""/>
			<path d="M222.218,164.571h67.611c-14.68-10.304-26.355-24.327-33.829-40.631C248.54,140.239,236.881,154.261,222.218,164.571z" fill="#238706" data-original="#000000" style="" class=""/>
			<path d="M353.83,75.886l-0.064-0.101c-3.624-3.534-9.422-3.479-12.979,0.123c-3.557,3.602-3.538,9.4,0.041,12.979     c3.579,3.579,9.377,3.598,12.979,0.041c3.602-3.557,3.657-9.354,0.123-12.979L353.83,75.886z" fill="#238706" data-original="#000000" style="" class=""/>
			<path d="M405.075,164.571h61.211V91.429h-18.752C444.829,120.868,429.298,147.622,405.075,164.571z" fill="#238706" data-original="#000000" style="" class=""/>
			<path d="M347.43,164.571c45.445,0,82.286-36.841,82.286-82.286C429.715,36.841,392.875,0,347.43,0s-82.286,36.841-82.286,82.286     C265.194,127.71,302.006,164.521,347.43,164.571z M399.992,64.128c2.391-0.405,4.845,0.156,6.822,1.561     c1.977,1.404,3.315,3.536,3.72,5.927c0.597,3.525,0.897,7.094,0.896,10.67c0,5.049-4.093,9.143-9.143,9.143     c-5.049,0-9.143-4.093-9.143-9.143c0.003-2.552-0.208-5.099-0.631-7.616C391.669,69.694,395.017,64.975,399.992,64.128z      M390.465,39.25c3.569,3.57,3.569,9.358,0,12.928l-18.35,18.359c1.789,3.659,2.727,7.676,2.743,11.749     c0,15.148-12.28,27.429-27.429,27.429s-27.429-12.28-27.429-27.429s12.28-27.429,27.429-27.429     c4.073,0.016,8.09,0.954,11.749,2.743l18.359-18.359C381.11,35.674,386.897,35.679,390.465,39.25z M283.43,82.286     c0.006-18.834,8.307-36.709,22.694-48.865c14.386-12.156,33.396-17.358,51.967-14.221c4.616,0.858,7.831,5.073,7.439,9.751     s-4.263,8.3-8.957,8.379c-0.512-0.002-1.022-0.045-1.527-0.128c-13.266-2.222-26.837,1.504-37.109,10.187     s-16.204,21.446-16.221,34.896c0,5.049-4.093,9.143-9.143,9.143C287.523,91.429,283.43,87.335,283.43,82.286z" fill="#238706" data-original="#000000" style="" class=""/>
			<path d="M64.468,91.429H45.715v73.143h61.257C82.733,147.632,67.184,120.876,64.468,91.429z" fill="#238706" data-original="#000000" style="" class=""/>
			<circle cx="164.573" cy="429.714" r="27.429" fill="#238706" data-original="#000000" style="" class=""/>
			<path d="M347.43,502.857c0,5.049,4.093,9.143,9.143,9.143h54.857c5.049,0,9.143-4.093,9.143-9.143v-9.143H347.43V502.857z" fill="#238706" data-original="#000000" style="" class=""/>
			<path d="M164.573,347.429c-33.281,0-63.286,20.048-76.022,50.796c-12.736,30.748-5.696,66.141,17.837,89.674     c23.534,23.534,58.926,30.574,89.674,17.837c30.748-12.736,50.796-42.741,50.796-76.022     C246.808,384.29,209.997,347.479,164.573,347.429z M164.573,475.429c-25.247,0-45.714-20.467-45.714-45.714     S139.325,384,164.573,384c25.247,0,45.714,20.467,45.714,45.714C210.257,454.949,189.807,475.398,164.573,475.429z" fill="#238706" data-original="#000000" style="" class=""/>
			<path d="M504.166,205.778c-2.2-13.205-13.612-22.893-26.999-22.921H34.835c-13.363,0.027-24.763,9.681-26.99,22.857     c-5.089,31.75-7.711,63.846-7.845,96c0.135,32.133,2.755,64.207,7.835,95.936c2.2,13.205,13.611,22.893,26.999,22.921h29.632     c4.651-51.824,48.082-91.533,100.114-91.533c52.032,0,95.464,39.709,100.114,91.533h64.448v-9.143     c0-5.049,4.093-9.143,9.143-9.143c5.049,0,9.143,4.093,9.143,9.143v64h73.143v-64c0-5.049,4.093-9.143,9.143-9.143     s9.143,4.093,9.143,9.143v9.143h38.309c13.363-0.027,24.763-9.681,26.99-22.857c5.089-31.75,7.711-63.845,7.845-96     C511.866,269.581,509.247,237.507,504.166,205.778z M100.573,228.571H73.144c-5.049,0-9.143-4.093-9.143-9.143     s4.093-9.143,9.143-9.143h27.429c5.049,0,9.143,4.093,9.143,9.143S105.622,228.571,100.573,228.571z M438.858,228.571H137.144     c-5.049,0-9.143-4.093-9.143-9.143s4.093-9.143,9.143-9.143h301.714c5.049,0,9.143,4.093,9.143,9.143     S443.908,228.571,438.858,228.571z" fill="#238706" data-original="#000000" style="" class=""/>
		</g>
	</g>
</g>
<g xmlns="http://www.w3.org/2000/svg">
</g>
<g xmlns="http://www.w3.org/2000/svg">
</g>
<g xmlns="http://www.w3.org/2000/svg">
</g>
<g xmlns="http://www.w3.org/2000/svg">
</g>
<g xmlns="http://www.w3.org/2000/svg">
</g>
<g xmlns="http://www.w3.org/2000/svg">
</g>
<g xmlns="http://www.w3.org/2000/svg">
</g>
<g xmlns="http://www.w3.org/2000/svg">
</g>
<g xmlns="http://www.w3.org/2000/svg">
</g>
<g xmlns="http://www.w3.org/2000/svg">
</g>
<g xmlns="http://www.w3.org/2000/svg">
</g>
<g xmlns="http://www.w3.org/2000/svg">
</g>
<g xmlns="http://www.w3.org/2000/svg">
</g>
<g xmlns="http://www.w3.org/2000/svg">
</g>
<g xmlns="http://www.w3.org/2000/svg">
</g>
</g></svg>
